<svg xmlns="http://www.w3.org/2000/svg" width="900" height="1100" viewBox="0 0 900 1100" preserveAspectRatio="xMidYMid slice">
  <defs>
    <radialGradient id="a4" cx="38%" cy="76%" r="80%">
      <stop offset="0%" stop-color="#1a2440"/>
      <stop offset="55%" stop-color="#090c16"/>
      <stop offset="100%" stop-color="#050508"/>
    </radialGradient>
    <radialGradient id="b4" cx="68%" cy="38%" r="55%">
      <stop offset="0%" stop-color="#1a2440" stop-opacity="0.55"/>
      <stop offset="100%" stop-color="#1a2440" stop-opacity="0"/>
    </radialGradient>
    <filter id="n4"><feTurbulence type="fractalNoise" baseFrequency="0.9" numOctaves="2" stitchTiles="stitch"/>
      <feColorMatrix type="saturate" values="0"/>
      <feComponentTransfer><feFuncA type="linear" slope="0.05"/></feComponentTransfer>
      <feComposite operator="over" in2="SourceGraphic"/></filter>
  </defs>
  <rect width="900" height="1100" fill="url(#a4)"/>
  <rect width="900" height="1100" fill="url(#b4)"/>
  <path d="M-20 97 C 270 57, 630 137, 920 97" stroke="rgba(255,255,255,0.04)" fill="none" stroke-width="1"/><path d="M-20 227 C 270 187, 630 267, 920 227" stroke="rgba(255,255,255,0.04)" fill="none" stroke-width="1"/><path d="M-20 419 C 270 379, 630 459, 920 419" stroke="rgba(255,255,255,0.04)" fill="none" stroke-width="1"/><path d="M-20 602 C 270 562, 630 642, 920 602" stroke="rgba(255,255,255,0.04)" fill="none" stroke-width="1"/><path d="M-20 719 C 270 679, 630 759, 920 719" stroke="rgba(255,255,255,0.04)" fill="none" stroke-width="1"/><path d="M-20 796 C 270 756, 630 836, 920 796" stroke="rgba(255,255,255,0.04)" fill="none" stroke-width="1"/><path d="M-20 910 C 270 870, 630 950, 920 910" stroke="rgba(255,255,255,0.04)" fill="none" stroke-width="1"/>
  <circle cx="212" cy="364" r="0.6" fill="rgba(255,255,255,0.06)"/><circle cx="349" cy="583" r="1.1" fill="rgba(255,255,255,0.06)"/><circle cx="486" cy="802" r="1.6" fill="rgba(255,255,255,0.06)"/><circle cx="623" cy="1021" r="0.6" fill="rgba(255,255,255,0.06)"/><circle cx="760" cy="140" r="1.1" fill="rgba(255,255,255,0.06)"/><circle cx="897" cy="359" r="1.6" fill="rgba(255,255,255,0.06)"/><circle cx="134" cy="578" r="0.6" fill="rgba(255,255,255,0.06)"/><circle cx="271" cy="797" r="1.1" fill="rgba(255,255,255,0.06)"/><circle cx="408" cy="1016" r="1.6" fill="rgba(255,255,255,0.06)"/><circle cx="545" cy="135" r="0.6" fill="rgba(255,255,255,0.06)"/><circle cx="682" cy="354" r="1.1" fill="rgba(255,255,255,0.06)"/><circle cx="819" cy="573" r="1.6" fill="rgba(255,255,255,0.06)"/><circle cx="56" cy="792" r="0.6" fill="rgba(255,255,255,0.06)"/><circle cx="193" cy="1011" r="1.1" fill="rgba(255,255,255,0.06)"/><circle cx="330" cy="130" r="1.6" fill="rgba(255,255,255,0.06)"/><circle cx="467" cy="349" r="0.6" fill="rgba(255,255,255,0.06)"/><circle cx="604" cy="568" r="1.1" fill="rgba(255,255,255,0.06)"/><circle cx="741" cy="787" r="1.6" fill="rgba(255,255,255,0.06)"/><circle cx="878" cy="1006" r="0.6" fill="rgba(255,255,255,0.06)"/><circle cx="115" cy="125" r="1.1" fill="rgba(255,255,255,0.06)"/><circle cx="252" cy="344" r="1.6" fill="rgba(255,255,255,0.06)"/><circle cx="389" cy="563" r="0.6" fill="rgba(255,255,255,0.06)"/><circle cx="526" cy="782" r="1.1" fill="rgba(255,255,255,0.06)"/><circle cx="663" cy="1001" r="1.6" fill="rgba(255,255,255,0.06)"/><circle cx="800" cy="120" r="0.6" fill="rgba(255,255,255,0.06)"/><circle cx="37" cy="339" r="1.1" fill="rgba(255,255,255,0.06)"/>
  <rect width="900" height="1100" filter="url(#n4)" opacity="0.5"/>
  <rect width="900" height="1100" fill="none"/>
</svg>